IKResults
version=1
nRows=5
nColumns=40
inDegrees=yes

Units are S.I. units (second, meters, Newtons, ...)
Angles are in degrees.

endheader
time	pelvis_tilt	pelvis_list	pelvis_rotation	pelvis_tx	pelvis_ty	pelvis_tz	hip_flexion_r	hip_adduction_r	hip_rotation_r	knee_angle_r	knee_angle_r_beta	ankle_angle_r	subtalar_angle_r	mtp_angle_r	hip_flexion_l	hip_adduction_l	hip_rotation_l	knee_angle_l	knee_angle_l_beta	ankle_angle_l	subtalar_angle_l	mtp_angle_l	lumbar_extension	lumbar_bending	lumbar_rotation	arm_flex_r	arm_add_r	arm_rot_r	elbow_flex_r	pro_sup_r	wrist_flex_r	wrist_dev_r	arm_flex_l	arm_add_l	arm_rot_l	elbow_flex_l	pro_sup_l	wrist_flex_l	wrist_dev_l
      0.00000000	     -1.50002590	     -4.38702170	      4.30126257	     -0.47954597	      0.89853277	     -1.02156071	     25.73345168	      2.81106094	    -14.57215812	    -23.66664923	     -0.41306095	     -0.50299788	    -16.02679164	      5.28681984	     -5.91432199	      6.37794047	      0.66889418	    -37.67049334	     -0.65747414	     -0.43251129	     17.09742492	      1.22497567	     -0.87588326	      5.30318519	     -9.38628279	    -16.23499733	    -11.04100612	     -0.53468981	     19.11906247	     89.95437384	      0.00000000	      0.00000000	      6.53014698	      6.39076485	     21.39105110	     56.56385540	     89.95437384	      0.00000000	      0.00000000
      0.01000000	     -1.35651934	     -4.45487329	      4.13856129	     -0.46857624	      0.90074974	     -1.01997735	     24.70628675	      3.19511136	    -14.40654892	    -23.46103326	     -0.40947228	      0.05506204	    -15.81523850	      5.28534644	     -5.07259568	      6.61472231	      0.68931966	    -39.76689140	     -0.69406319	     -3.14493109	     17.65225174	      1.66193368	     -0.93246247	      5.36569236	     -9.05289151	    -15.73898872	    -10.98109714	     -0.33020785	     19.32737077	     89.95437384	      0.00000000	      0.00000000	      6.10536228	      6.29622182	     21.29864854	     55.68391147	     89.95437384	      0.00000000	      0.00000000
      0.02000000	     -1.12464015	     -4.21858680	      3.86154387	     -0.45820621	      0.90299756	     -1.01856443	     23.67287291	      3.20339564	    -14.32518298	    -23.41679243	     -0.40870013	      0.55207155	    -15.45192637	      5.17419227	     -4.26344959	      6.36822169	      0.58294238	    -41.91758294	     -0.73159984	     -4.59786801	     17.60241820	      1.77992893	     -1.22552687	      5.12773796	     -8.51463602	    -15.18749649	    -10.88848927	     -0.13861589	     19.61874453	     89.95437384	      0.00000000	      0.00000000	      5.80456994	      6.21341922	     21.15162764	     54.85739640	     89.95437384	      0.00000000	      0.00000000
      0.03000000	     -1.19599596	     -4.40650805	      3.91948923	     -0.44791650	      0.90475812	     -1.01723880	     22.76026213	      3.64480909	    -14.29663379	    -22.91758259	     -0.39998727	      1.20818725	    -15.25088332	      5.13386217	     -2.80007698	      6.75558015	      0.37400754	    -44.34737832	     -0.77400777	     -6.30849778	     17.82153597	      2.03357134	     -1.06801740	      5.29384324	     -8.39368965	    -14.64165184	    -10.86625470	      0.15265826	     19.92147927	     89.95437384	      0.00000000	      0.00000000	      5.38398808	      6.21495879	     20.85295604	     53.87107148	     89.95437384	      0.00000000	      0.00000000
      0.04000000	     -0.93325744	     -4.13069138	      3.63226633	     -0.43786652	      0.90684695	     -1.01585313	     21.67051901	      3.56147702	    -14.42551279	    -22.80234557	     -0.39797601	      1.63017997	    -14.99915936	      5.05202446	     -1.89715389	      6.47428284	      0.49054170	    -46.45400912	     -0.81077541	     -6.48573350	     18.09123015	      2.13520730	     -1.44766807	      4.97887297	     -7.87399073	    -13.97275101	    -10.78612729	      0.32644800	     20.25591721	     89.95437384	      0.00000000	      0.00000000	      5.00340683	      6.19000003	     20.72169246	     53.01301130	     89.95437384	      0.00000000	      0.00000000
